<svg width="311" height="200" viewBox="0 0 311 200" fill="none" xmlns="http://www.w3.org/2000/svg">
<path opacity="0.0833333" fill-rule="evenodd" clip-rule="evenodd" d="M63.5929 176.569C50.5959 189.277 27.7837 187.991 10.4859 183.748C-5.87589 179.735 -13.685 162.589 -27.9038 154.127C-42.6076 145.377 -63.079 145.978 -74.2456 133.323C-86.2148 119.758 -90.8432 101.017 -90.8503 82.7897C-90.8577 63.709 -91.5184 38.3217 -74.2864 28.0309C-54.3807 16.1435 -28.8143 41.1902 -7.19128 32.8296C11.1642 25.7324 9.61156 -13.839 28.8363 -11.8416C48.8067 -9.7667 36.0684 30.204 53.5454 39.1401C73.8726 49.5334 104.798 22.6643 122.885 36.2458C137.795 47.4413 132.41 74.5189 122.874 91.1979C113.403 107.764 85.0735 105.76 74.1349 121.512C63.0143 137.527 77.6597 162.814 63.5929 176.569Z" stroke="url(#paint0_linear_126_250)" stroke-opacity="0.2" stroke-width="1.72076"/>
<path opacity="0.166667" fill-rule="evenodd" clip-rule="evenodd" d="M57.8357 164.274C43.4768 175.272 21.0951 171.18 4.51437 164.836C-11.1691 158.835 -16.8334 140.866 -29.868 130.718C-43.3471 120.224 -63.6422 118.292 -73.1602 104.362C-83.3623 89.4314 -85.6938 70.2735 -83.5214 52.1958C-81.2473 33.2717 -78.8645 8.0124 -60.6111 -0.0652596C-39.5254 -9.39623 -17.2639 18.6011 5.09647 12.9799C24.0779 8.20827 27.2755 -31.2282 46.0282 -26.873C65.5083 -22.3489 48.1453 15.7186 64.342 26.7393C83.1799 39.5572 116.943 16.7292 133.187 32.4323C146.577 45.3767 138.02 71.5657 126.605 86.9293C115.268 102.189 87.5221 96.7025 74.8326 110.974C61.9322 125.483 73.3764 152.37 57.8357 164.274Z" stroke="url(#paint1_linear_126_250)" stroke-opacity="0.2" stroke-width="1.72076"/>
<path opacity="0.25" fill-rule="evenodd" clip-rule="evenodd" d="M53.782 151.577C38.2829 160.723 16.6742 153.91 1.06377 145.577C-13.7019 137.694 -17.1372 119.17 -28.7892 107.498C-40.8387 95.4286 -60.6465 91.0161 -68.3721 76.0251C-76.6529 59.9566 -76.6545 40.6622 -72.3386 22.9934C-67.8206 4.49734 -62.4346 -20.2709 -43.4407 -26.0404C-21.4997 -32.7051 -2.88024 -2.18966 19.874 -5.01686C39.1897 -7.41683 47.0828 -46.1508 65.0767 -39.5236C83.7685 -32.6394 62.0526 2.99437 76.7221 15.9205C93.7839 30.9546 129.863 12.4577 144.017 30.0354C155.685 44.525 144.091 69.4563 130.975 83.2957C117.948 97.0411 91.2093 88.1859 76.9656 100.785C62.485 113.594 70.5567 141.678 53.782 151.577Z" stroke="url(#paint2_linear_126_250)" stroke-opacity="0.2" stroke-width="1.72076"/>
<path opacity="0.333333" fill-rule="evenodd" clip-rule="evenodd" d="M51.4587 138.69C35.0554 145.87 14.5474 136.465 0.143961 126.284C-13.4801 116.655 -14.6353 97.8497 -24.7285 84.8407C-35.166 71.3879 -54.186 64.5849 -60.0027 48.762C-66.2375 31.8017 -63.9104 12.653 -57.5176 -4.35412C-50.8255 -22.1575 -42.5195 -46.0793 -23.074 -49.481C-0.611389 -53.4106 14.0852 -20.8474 36.8874 -20.8689C56.2438 -20.8872 68.7102 -58.3625 85.6724 -49.5836C103.292 -40.4641 77.5556 -7.75709 90.476 6.86635C105.503 23.8745 143.35 9.93236 155.201 29.1091C164.969 44.9168 150.515 68.2409 135.898 80.3707C121.38 92.4181 96.0546 80.358 80.4738 91.1192C64.6339 102.059 69.212 130.918 51.4587 138.69Z" stroke="url(#paint3_linear_126_250)" stroke-opacity="0.2" stroke-width="1.72076"/>
<path opacity="0.416667" fill-rule="evenodd" clip-rule="evenodd" d="M50.8665 125.826C33.8056 130.957 14.7066 119.125 1.7264 107.268C-10.5514 96.0519 -9.40933 77.2461 -17.7922 63.1056C-26.4609 48.4827 -44.4073 39.4156 -48.2279 23.0025C-52.3232 5.40963 -47.7025 -13.3135 -39.3291 -29.4161C-30.5636 -46.2726 -19.4628 -69.0058 0.141912 -70.0158C22.7885 -71.1824 33.3416 -37.073 55.8491 -34.3194C74.9553 -31.982 91.8071 -67.6614 107.483 -56.8836C123.766 -45.6877 94.3957 -16.356 105.373 -0.268936C118.14 18.4415 157.186 9.20885 166.554 29.6851C174.277 46.564 157.181 67.9556 141.282 78.2163C125.491 88.4073 101.96 73.355 85.2763 82.14C68.3153 91.0711 69.3314 120.272 50.8665 125.826Z" stroke="url(#paint4_linear_126_250)" stroke-opacity="0.2" stroke-width="1.72076"/>
<path opacity="0.5" fill-rule="evenodd" clip-rule="evenodd" d="M51.98 113.195C34.5153 116.224 17.109 102.169 5.74508 88.8299C-5.00393 76.2122 -1.58163 57.6853 -8.12949 42.6362C-14.9007 27.0737 -31.5067 15.9028 -33.2744 -0.849832C-35.1692 -18.8067 -28.3237 -36.8306 -18.0942 -51.7995C-7.38573 -67.4692 6.34483 -88.689 25.8174 -87.3191C48.3113 -85.7367 54.5641 -50.6054 76.4423 -45.1488C95.0143 -40.5168 116.001 -73.8902 130.157 -61.2961C144.862 -48.2135 112.294 -22.6553 121.165 -5.36026C131.483 14.7552 171.146 10.3164 177.894 31.7731C183.456 49.4602 163.972 68.623 147.028 76.8831C130.199 85.0871 108.811 67.2999 91.2731 74.0003C73.443 80.8122 70.8822 109.918 51.98 113.195Z" stroke="url(#paint5_linear_126_250)" stroke-opacity="0.2" stroke-width="1.72076"/>
<path opacity="0.583333" fill-rule="evenodd" clip-rule="evenodd" d="M54.7483 101.004C37.1364 101.907 21.6784 85.8659 12.0973 71.2614C3.03469 57.4472 8.68631 39.4746 4.06918 23.7532C-0.705446 7.49553 -15.7273 -5.58788 -15.4167 -22.4244C-15.0838 -40.4712 -6.11469 -57.5327 5.82011 -71.1555C18.3137 -85.416 34.4715 -104.82 53.5257 -101.117C75.5364 -96.8402 77.3981 -61.2266 98.3256 -53.1791C116.091 -46.3477 140.902 -76.9388 153.331 -62.7379C166.242 -47.9863 130.957 -26.5439 137.592 -8.31433C145.308 12.888 185.007 13.2567 189.035 35.3604C192.355 53.5808 170.77 70.2515 153.03 76.409C135.411 82.5246 116.481 62.3004 98.3457 66.8387C79.909 71.4524 73.8097 100.026 54.7483 101.004Z" stroke="url(#paint6_linear_126_250)" stroke-opacity="0.2" stroke-width="1.72076"/>
<path opacity="0.666667" fill-rule="evenodd" clip-rule="evenodd" d="M59.0964 89.4459C41.5937 88.2328 28.307 70.4701 20.6466 54.836C13.4007 40.0479 21.1976 22.8968 18.5768 6.74919C15.8665 -9.94928 2.64587 -24.7261 5.02855 -41.3898C7.5825 -59.2514 18.543 -75.1015 32.0081 -87.1854C46.1036 -99.835 64.4517 -117.148 82.8109 -111.194C104.019 -104.315 101.466 -68.7656 121.139 -58.277C137.839 -49.3734 166.113 -76.747 176.635 -61.1724C187.565 -44.9936 150.078 -27.949 154.382 -9.07181C159.388 12.8838 198.544 18.0031 199.796 40.411C200.828 58.8823 177.457 72.834 159.18 76.8177C141.028 80.7743 124.828 58.4463 106.361 60.7765C87.5859 63.1454 78.0397 90.7587 59.0964 89.4459Z" stroke="url(#paint7_linear_126_250)" stroke-opacity="0.2" stroke-width="1.72076"/>
<path opacity="0.75" fill-rule="evenodd" clip-rule="evenodd" d="M64.9265 78.7062C47.7848 75.4165 36.8572 56.2215 31.2246 39.8078C25.8968 24.2822 35.723 8.20764 35.1328 -8.11431C34.5224 -24.9931 23.2904 -41.2198 27.7073 -57.4568C32.4418 -74.861 45.2325 -89.2685 60.0313 -99.6434C75.523 -110.504 95.7934 -125.481 113.194 -117.389C133.295 -108.04 126.372 -73.0991 144.51 -60.3544C159.906 -49.5357 191.228 -73.3038 199.695 -56.6077C208.491 -39.2641 169.345 -26.8354 171.26 -7.60652C173.488 14.7581 211.538 24.5025 210.001 46.868C208.734 65.3042 183.918 76.3499 165.368 78.1202C146.944 79.8784 133.704 55.8098 115.171 55.9179C96.3287 56.0279 83.479 82.2666 64.9265 78.7062Z" stroke="url(#paint8_linear_126_250)" stroke-opacity="0.2" stroke-width="1.72076"/>
<path opacity="0.833333" fill-rule="evenodd" clip-rule="evenodd" d="M72.1192 68.9544C55.5826 63.6573 47.1637 43.3394 43.6337 26.4067C40.2947 10.3902 52.0042 -4.36896 53.4474 -20.6114C54.9398 -37.4079 45.8514 -54.8209 52.2338 -70.384C59.0749 -87.0658 73.5079 -99.8208 89.4252 -108.341C106.088 -117.261 127.985 -129.691 144.182 -119.604C162.891 -107.952 151.709 -74.1547 168.056 -59.3709C181.933 -46.8212 215.847 -66.6482 222.144 -49.0988C228.685 -30.8687 188.445 -23.2072 187.951 -3.92699C187.376 18.4973 223.78 32.6753 219.483 54.6529C215.941 72.7695 190.039 80.764 171.482 80.3131C153.051 79.8652 142.951 54.4435 124.617 52.3476C105.977 50.2168 90.0169 74.6875 72.1192 68.9544Z" stroke="url(#paint9_linear_126_250)" stroke-opacity="0.2" stroke-width="1.72076"/>
<path opacity="0.916667" fill-rule="evenodd" clip-rule="evenodd" d="M80.5366 60.3435C64.8376 53.1365 59.0369 32.02 57.6512 14.8354C56.3405 -1.41936 69.7591 -14.6436 73.2069 -30.5546C76.7723 -47.0084 69.948 -65.3281 78.1971 -79.9805C87.0392 -95.6861 102.903 -106.603 119.708 -113.151C137.299 -120.005 160.506 -129.715 175.273 -117.806C192.331 -104.049 177.066 -71.9112 191.398 -55.3336C203.563 -41.2611 239.576 -56.8688 243.622 -38.7452C247.826 -19.9187 207.068 -17.1072 204.181 1.92414C200.823 24.0591 235.07 42.4167 228.086 63.6678C222.329 81.1855 195.712 86.0278 177.412 83.3796C159.236 80.7492 152.408 54.3799 134.532 50.1292C116.359 45.8079 97.5277 68.1436 80.5366 60.3435Z" stroke="url(#paint10_linear_126_250)" stroke-opacity="0.2" stroke-width="1.72076"/>
<path fill-rule="evenodd" clip-rule="evenodd" d="M90.0232 53.0076C75.3798 44.015 72.2652 22.4341 73.0317 5.267C73.7567 -10.9711 88.685 -22.4639 94.0776 -37.7976C99.6542 -53.6544 95.1785 -72.5895 105.167 -86.1084C115.874 -100.599 132.935 -109.519 150.385 -114.004C168.651 -118.7 192.832 -125.554 205.967 -112.02C221.141 -96.3856 202.031 -66.3986 214.155 -48.2967C224.447 -32.9303 262.037 -44.1015 263.788 -25.6899C265.606 -6.56423 224.911 -8.61646 219.685 9.87105C213.607 31.3734 245.223 53.5985 235.666 73.7964C227.788 90.4459 200.837 92.0801 183.052 87.2894C165.387 82.5313 161.909 55.6312 144.743 49.3054C127.292 42.8745 105.872 62.7403 90.0232 53.0076Z" stroke="url(#paint11_linear_126_250)" stroke-opacity="0.2" stroke-width="1.72076"/>
<defs>
<linearGradient id="paint0_linear_126_250" x1="206.369" y1="163.931" x2="-66.9744" y2="-56.5553" gradientUnits="userSpaceOnUse">
<stop stop-color="#FFC881"/>
<stop offset="1" stop-color="#DA8517"/>
</linearGradient>
<linearGradient id="paint1_linear_126_250" x1="200.392" y1="169.373" x2="-44.3365" y2="-82.0158" gradientUnits="userSpaceOnUse">
<stop stop-color="#FFC881"/>
<stop offset="1" stop-color="#DA8517"/>
</linearGradient>
<linearGradient id="paint2_linear_126_250" x1="193.933" y1="174.167" x2="-18.7182" y2="-104.44" gradientUnits="userSpaceOnUse">
<stop stop-color="#FFC881"/>
<stop offset="1" stop-color="#DA8517"/>
</linearGradient>
<linearGradient id="paint3_linear_126_250" x1="187.077" y1="178.259" x2="9.49342" y2="-123.498" gradientUnits="userSpaceOnUse">
<stop stop-color="#FFC881"/>
<stop offset="1" stop-color="#DA8517"/>
</linearGradient>
<linearGradient id="paint4_linear_126_250" x1="179.914" y1="181.605" x2="39.875" y2="-138.911" gradientUnits="userSpaceOnUse">
<stop stop-color="#FFC881"/>
<stop offset="1" stop-color="#DA8517"/>
</linearGradient>
<linearGradient id="paint5_linear_126_250" x1="172.539" y1="184.173" x2="71.9739" y2="-150.45" gradientUnits="userSpaceOnUse">
<stop stop-color="#FFC881"/>
<stop offset="1" stop-color="#DA8517"/>
</linearGradient>
<linearGradient id="paint6_linear_126_250" x1="165.048" y1="185.944" x2="105.314" y2="-157.944" gradientUnits="userSpaceOnUse">
<stop stop-color="#FFC881"/>
<stop offset="1" stop-color="#DA8517"/>
</linearGradient>
<linearGradient id="paint7_linear_126_250" x1="157.543" y1="186.91" x2="139.402" y2="-161.28" gradientUnits="userSpaceOnUse">
<stop stop-color="#FFC881"/>
<stop offset="1" stop-color="#DA8517"/>
</linearGradient>
<linearGradient id="paint8_linear_126_250" x1="150.121" y1="187.075" x2="173.738" y2="-160.405" gradientUnits="userSpaceOnUse">
<stop stop-color="#FFC881"/>
<stop offset="1" stop-color="#DA8517"/>
</linearGradient>
<linearGradient id="paint9_linear_126_250" x1="142.881" y1="186.456" x2="207.817" y2="-155.325" gradientUnits="userSpaceOnUse">
<stop stop-color="#FFC881"/>
<stop offset="1" stop-color="#DA8517"/>
</linearGradient>
<linearGradient id="paint10_linear_126_250" x1="135.918" y1="185.082" x2="241.142" y2="-146.107" gradientUnits="userSpaceOnUse">
<stop stop-color="#FFC881"/>
<stop offset="1" stop-color="#DA8517"/>
</linearGradient>
<linearGradient id="paint11_linear_126_250" x1="129.324" y1="182.994" x2="273.226" y2="-132.877" gradientUnits="userSpaceOnUse">
<stop stop-color="#FFC881"/>
<stop offset="1" stop-color="#DA8517"/>
</linearGradient>
</defs>
</svg>
