<svg width="165" height="60" viewBox="0 0 165 60" fill="none" xmlns="http://www.w3.org/2000/svg">
<rect width="60" height="60" rx="30" fill="white"/>
<path d="M21.7432 41V22.7422H22.04L26.9756 30.6836V41H21.7432ZM21.7432 18.4375V15.0234H26.0107L38.2568 34.7656V41H35.7705L21.7432 18.4375ZM33.0244 22.5195V15.0234H38.2568V30.4609H37.96L33.0244 22.5195Z" fill="#121418"/>
<path d="M71.8295 41L76.3515 15.35H83.7995L91.4185 38.796H90.7725L94.9335 15.35H99.5505L95.0285 41H87.6565L80.0945 17.516H80.5695L76.4275 41H71.8295ZM102.583 41L105.984 21.658H101.386L101.937 18.485H106.573L106.763 17.288C107.168 14.9953 108.384 13.3803 110.411 12.443C112.437 11.493 115.066 11.018 118.296 11.018H118.98L118.467 14.077H117.859C115.921 14.077 114.407 14.2923 113.318 14.723C112.228 15.1537 111.57 16.015 111.342 17.307L111.114 18.485H117.441L116.89 21.658H110.563L107.162 41H102.583ZM127.196 41.266C125.448 41.266 124.042 40.886 122.978 40.126C121.914 39.366 121.565 37.9663 121.933 35.927L124.441 21.677H119.197L119.767 18.485H125.011L125.904 13.374H130.502L129.59 18.485H136.886L136.316 21.677H129.039L126.702 34.863C126.461 36.2057 126.575 37.0923 127.044 37.523C127.512 37.941 128.253 38.15 129.267 38.15C130.204 38.15 131.141 37.998 132.079 37.694L131.547 40.772C130.141 41.1013 128.69 41.266 127.196 41.266ZM135.042 41L145.226 28.308L139.83 15.35H145.188L149.083 26.351L156.854 15.35H162.212L152.218 28.308L157.918 41H152.579L148.38 30.265L140.419 41H135.042Z" fill="white"/>
</svg>
